<?xml version="1.0" encoding="utf-8"?>
<!-- Generator: Adobe Illustrator 16.0.4, SVG Export Plug-In . SVG Version: 6.00 Build 0)  -->
<!DOCTYPE svg PUBLIC "-//W3C//DTD SVG 1.1//EN" "http://www.w3.org/Graphics/SVG/1.1/DTD/svg11.dtd">
<svg version="1.1" id="Layer_1" xmlns="http://www.w3.org/2000/svg" xmlns:xlink="http://www.w3.org/1999/xlink" x="0px" y="0px"
	 width="463.348px" height="349.771px" viewBox="0 0 463.348 349.771" enable-background="new 0 0 463.348 349.771"
	 xml:space="preserve">
<polygon fill="#FFFFFF" fill-opacity="0.75" stroke="#000000" stroke-width="4" stroke-linecap="round" stroke-linejoin="round" stroke-miterlimit="10" points="
	302.76,332.29 152.38,332.29 2,332.29 91.465,277.894 180.93,223.499 298.215,223.499 415.5,223.499 359.13,277.894 "/>
<g>
	<g>
		
			<line fill="none" stroke="#A42387" stroke-width="4" stroke-linecap="round" stroke-linejoin="round" x1="172.839" y1="316.918" x2="176.854" y2="313.939"/>
		
			<line fill="none" stroke="#A42387" stroke-width="4" stroke-linecap="round" stroke-linejoin="round" stroke-dasharray="10.3907,15.586" x1="189.371" y1="304.65" x2="266.553" y2="247.373"/>
		
			<line fill="none" stroke="#A42387" stroke-width="4" stroke-linecap="round" stroke-linejoin="round" x1="272.812" y1="242.728" x2="276.826" y2="239.749"/>
		<g>
			<polygon fill="#A42387" points="161.5,325.333 182.324,320.004 173.687,316.29 172.634,306.948 			"/>
		</g>
		<g>
			<polygon fill="#A42387" points="288.166,231.333 277.032,249.721 275.979,240.377 267.343,236.664 			"/>
		</g>
	</g>
</g>
<polygon fill="#FFFFFF" fill-opacity="0.75" stroke="#000000" stroke-width="4" stroke-linecap="round" stroke-linejoin="round" stroke-miterlimit="10" points="
	384.668,253.702 258.816,253.702 132.966,253.702 132.966,127.851 132.966,2 258.816,2 384.668,2 384.668,127.851 "/>
<polygon fill="#FFFFFF" fill-opacity="0.75" stroke="#000000" stroke-width="4" stroke-linecap="round" stroke-linejoin="round" stroke-miterlimit="10" points="
	367.035,270.035 236,270.035 104.966,270.035 104.966,139 104.966,7.966 236,7.966 367.035,7.966 367.035,139 "/>
<polygon fill="#FFFFFF" fill-opacity="0.75" stroke="#000000" stroke-width="4" stroke-linecap="round" stroke-linejoin="round" stroke-miterlimit="10" points="
	340.669,294.369 202.817,294.369 64.966,294.369 64.966,156.518 64.966,18.667 202.817,18.667 340.669,18.667 340.669,156.518 "/>
<g>
	<g>
		
			<line fill="none" stroke="#A42387" stroke-width="4" stroke-linecap="round" stroke-linejoin="round" x1="98.287" y1="154.833" x2="103.287" y2="154.833"/>
		
			<line fill="none" stroke="#A42387" stroke-width="4" stroke-linecap="round" stroke-linejoin="round" stroke-dasharray="10.5662,15.8493" x1="119.136" y1="154.833" x2="296.12" y2="154.833"/>
		
			<line fill="none" stroke="#A42387" stroke-width="4" stroke-linecap="round" stroke-linejoin="round" x1="304.045" y1="154.833" x2="309.045" y2="154.833"/>
		<g>
			<polygon fill="#A42387" points="84.166,154.833 104.064,162.964 99.343,154.833 104.064,146.705 			"/>
		</g>
		<g>
			<polygon fill="#A42387" points="323.166,154.833 303.268,162.964 307.989,154.833 303.268,146.705 			"/>
		</g>
	</g>
</g>
<g>
	<g>
		
			<line fill="none" stroke="#A42387" stroke-width="4" stroke-linecap="round" stroke-linejoin="round" x1="204.666" y1="50.288" x2="204.666" y2="55.288"/>
		
			<line fill="none" stroke="#A42387" stroke-width="4" stroke-linecap="round" stroke-linejoin="round" stroke-dasharray="10.5662,15.8493" x1="204.666" y1="71.137" x2="204.666" y2="248.121"/>
		
			<line fill="none" stroke="#A42387" stroke-width="4" stroke-linecap="round" stroke-linejoin="round" x1="204.666" y1="256.045" x2="204.666" y2="261.045"/>
		<g>
			<polygon fill="#A42387" points="204.666,36.167 196.535,56.065 204.666,51.344 212.795,56.065 			"/>
		</g>
		<g>
			<polygon fill="#A42387" points="204.666,275.167 196.535,255.268 204.666,259.99 212.795,255.268 			"/>
		</g>
	</g>
</g>
<g>
	<path fill="#A42387" d="M306.968,125.507c2.016-2.448,5.147-5.651,6.083-5.651c0.433,0,1.44,1.044,1.62,1.836
		c-1.764,0.864-4.104,2.339-7.091,5.399l-0.072,0.18c1.044,2.664,1.584,4.104,2.448,6.155c0.071,0.18,0.216,0.288,0.468,0.288
		c0.359,0,1.403-0.144,2.375-0.432c0.108,0.468,0.181,1.008,0.217,1.512c-1.188,0.468-3.384,0.756-4.859,0.756
		c-0.612-1.476-1.548-4.139-2.556-6.839h-0.145c-2.088,2.339-3.743,4.967-4.355,6.947c-0.72,0.072-2.052,0.072-3.023,0.072
		c0.396-1.8,3.888-5.832,6.803-8.639l0.036-0.216c-0.54-1.404-1.151-3.06-1.836-4.823l-2.771,0.648
		c-0.144-0.468-0.288-0.972-0.396-1.476c1.871-0.612,3.852-1.368,4.104-1.368c0.288,0,0.863,0.288,1.151,0.504
		c0.612,1.872,1.116,3.527,1.62,5.147H306.968z"/>
</g>
<g>
	<path fill="#A42387" d="M226.158,41.997c-0.072-0.54-0.145-1.044-0.216-1.512c2.375-0.648,4.175-1.296,4.391-1.296
		c0.252,0,0.792,0.396,1.08,0.792c0.433,4.607,0.972,10.042,1.404,13.786h0.18c1.116-1.764,1.908-3.132,2.592-4.644
		c1.044-2.231,2.483-5.903,2.483-7.595c0-0.216-0.107-0.324-0.324-0.324l-2.123,0.216c-0.036-0.504-0.072-1.008-0.108-1.512
		c1.8-0.288,3.672-0.684,3.996-0.684c0.252,0,1.115,0.9,1.115,1.152c0,2.448-2.123,7.163-3.527,9.791
		c-1.8,3.312-4.644,7.235-7.451,10.295c-1.691,1.8-3.384,3.06-3.707,3.06c-0.612,0-1.836-1.08-1.908-1.8
		c1.512-0.72,2.664-1.512,3.672-2.34c1.044-0.828,2.304-2.052,3.131-3.24c-0.468-2.987-1.403-10.367-1.907-14.65L226.158,41.997z"/>
</g>
<g>
	<path fill="#A42387" d="M207.891,321.665c-0.504,1.691-1.008,3.348-1.548,5.039c-0.828,0-2.052-0.036-4.68-0.036h-3.888
		c-0.611,0-2.447,0-3.06,0c-0.18-0.433-0.396-0.972-0.54-1.44c3.312-3.527,8.063-8.674,11.051-11.842l-0.036-0.18
		c-0.899,0-4.104,0.035-5.399,0.072c-0.684,0-0.899,0.215-1.044,0.539l-1.044,2.88c-0.575-0.072-1.151-0.181-1.655-0.288
		c0.396-1.656,0.828-3.275,1.224-4.896c0.504,0,1.728,0.036,3.42,0.036c2.447,0.036,4.932,0.036,7.199,0.036
		c0.18,0.54,0.323,1.26,0.432,1.907c-2.052,2.268-7.991,8.496-10.979,11.375v0.18c2.231-0.035,5.111-0.035,6.479-0.144
		c0.468-0.036,0.972-0.252,1.188-0.756l1.224-2.844C206.811,321.413,207.387,321.52,207.891,321.665z"/>
</g>
<g>
	<path fill="#A42387" d="M417.558,258.332c-0.504,1.691-1.008,3.347-1.548,5.039c-0.828,0-2.052-0.036-4.68-0.036h-3.888
		c-0.611,0-2.447,0-3.06,0c-0.18-0.432-0.396-0.972-0.54-1.439c3.312-3.528,8.063-8.675,11.051-11.843l-0.036-0.18
		c-0.899,0-4.104,0.035-5.399,0.071c-0.684,0-0.899,0.216-1.044,0.54l-1.044,2.88c-0.575-0.072-1.151-0.18-1.655-0.288
		c0.396-1.655,0.828-3.275,1.224-4.896c0.504,0,1.728,0.036,3.42,0.036c2.447,0.036,4.932,0.036,7.199,0.036
		c0.18,0.54,0.323,1.26,0.432,1.907c-2.052,2.269-7.991,8.495-10.979,11.375v0.18c2.231-0.036,5.111-0.036,6.479-0.144
		c0.468-0.036,0.972-0.252,1.188-0.756l1.224-2.844C416.478,258.08,417.054,258.187,417.558,258.332z"/>
	<path fill="#A42387" d="M421.302,256.567c4.212,0,9.936,0,14.326-0.035c0,0.611,0,1.26-0.035,1.907
		c-4.428,0-9.863,0.036-14.362,0.108C421.23,257.899,421.267,257.107,421.302,256.567z M421.302,251.24
		c4.392,0,9.827-0.036,14.362-0.107c0,0.611-0.036,1.403-0.071,2.016c-4.212,0-9.936,0-14.326,0
		C421.267,252.5,421.267,251.816,421.302,251.24z"/>
	<path fill="#A42387" d="M438.582,255.631c0.072-0.612,0.18-1.296,0.288-1.907c1.332,0,2.628,0,3.888,0
		c1.583-0.036,2.987-0.036,4.355-0.072c-0.072,0.72-0.217,1.403-0.324,1.979c-1.368,0-2.88,0-4.248,0
		C441.39,255.631,439.878,255.631,438.582,255.631z"/>
	<path fill="#A42387" d="M455.105,261.571c0.107,0,0.18-0.108,0.18-0.18c1.044-6.012,2.052-11.951,3.023-17.746
		c-1.907,0.432-3.779,0.864-6.191,1.403c-0.071-0.539-0.18-1.079-0.216-1.583c4.319-1.296,9.395-3.384,9.611-3.384
		c0.071,0,0.107,0.036,0.071,0.18c-1.188,6.983-2.483,14.146-3.743,21.273l5.507,0.108c-0.071,0.575-0.18,1.151-0.288,1.691
		c-2.339,0-4.751,0-6.839,0c-2.124,0-4.247,0.036-6.479,0.036c0.071-0.54,0.18-1.116,0.287-1.692L455.105,261.571z"/>
	<path fill="#A42387" d="M417.558,301.532c-0.504,1.691-1.008,3.347-1.548,5.039c-0.828,0-2.052-0.036-4.68-0.036h-3.888
		c-0.611,0-2.447,0-3.06,0c-0.18-0.432-0.396-0.972-0.54-1.439c3.312-3.528,8.063-8.675,11.051-11.843l-0.036-0.18
		c-0.899,0-4.104,0.035-5.399,0.071c-0.684,0-0.899,0.216-1.044,0.54l-1.044,2.88c-0.575-0.072-1.151-0.18-1.655-0.288
		c0.396-1.655,0.828-3.275,1.224-4.896c0.504,0,1.728,0.036,3.42,0.036c2.447,0.036,4.932,0.036,7.199,0.036
		c0.18,0.54,0.323,1.26,0.432,1.907c-2.052,2.269-7.991,8.495-10.979,11.375v0.18c2.231-0.036,5.111-0.036,6.479-0.144
		c0.468-0.036,0.972-0.252,1.188-0.756l1.224-2.844C416.478,301.28,417.054,301.387,417.558,301.532z"/>
	<path fill="#A42387" d="M421.302,299.767c4.212,0,9.936,0,14.326-0.035c0,0.611,0,1.26-0.035,1.907
		c-4.428,0-9.863,0.036-14.362,0.108C421.23,301.099,421.267,300.307,421.302,299.767z M421.302,294.44
		c4.392,0,9.827-0.036,14.362-0.107c0,0.611-0.036,1.403-0.071,2.016c-4.212,0-9.936,0-14.326,0
		C421.267,295.7,421.267,295.016,421.302,294.44z"/>
	<path fill="#A42387" d="M450.137,304.915c-1.584,1.368-3.275,1.98-5.22,1.98c-1.655,0-3.06-0.576-4.14-1.765
		c-1.296-1.403-1.728-3.743-1.728-6.047c0-5.111,1.691-10.727,4.716-13.57c1.8-1.691,3.383-2.231,5.435-2.231
		c1.872,0,3.348,0.647,4.428,2.016c1.008,1.332,1.476,3.491,1.476,5.688C455.104,296.816,453.124,302.323,450.137,304.915z
		 M445.529,286.377c-2.196,2.304-3.708,8.099-3.708,13.103c0,1.403,0.108,2.808,0.792,4.139c0.54,1.044,1.62,1.62,2.844,1.62
		c1.116,0,2.16-0.468,3.023-1.368c2.376-2.375,3.852-8.278,3.852-13.102c0-1.836-0.288-3.348-0.72-4.14
		c-0.72-1.188-1.62-1.692-2.951-1.692C447.473,284.937,446.393,285.513,445.529,286.377z"/>
	<path fill="#A42387" d="M417.558,344.732c-0.504,1.691-1.008,3.347-1.548,5.039c-0.828,0-2.052-0.036-4.68-0.036h-3.888
		c-0.611,0-2.447,0-3.06,0c-0.18-0.432-0.396-0.972-0.54-1.439c3.312-3.528,8.063-8.675,11.051-11.843l-0.036-0.18
		c-0.899,0-4.104,0.035-5.399,0.071c-0.684,0-0.899,0.216-1.044,0.54l-1.044,2.88c-0.575-0.072-1.151-0.18-1.655-0.288
		c0.396-1.655,0.828-3.275,1.224-4.896c0.504,0,1.728,0.036,3.42,0.036c2.447,0.036,4.932,0.036,7.199,0.036
		c0.18,0.54,0.323,1.26,0.432,1.907c-2.052,2.269-7.991,8.495-10.979,11.375v0.18c2.231-0.036,5.111-0.036,6.479-0.144
		c0.468-0.036,0.972-0.252,1.188-0.756l1.224-2.844C416.478,344.48,417.054,344.587,417.558,344.732z"/>
	<path fill="#A42387" d="M421.302,342.967c4.212,0,9.936,0,14.326-0.035c0,0.611,0,1.26-0.035,1.907
		c-4.428,0-9.863,0.036-14.362,0.108C421.23,344.299,421.267,343.507,421.302,342.967z M421.302,337.64
		c4.392,0,9.827-0.036,14.362-0.107c0,0.611-0.036,1.403-0.071,2.016c-4.212,0-9.936,0-14.326,0
		C421.267,338.9,421.267,338.216,421.302,337.64z"/>
	<path fill="#A42387" d="M444.306,347.971c0.107,0,0.18-0.108,0.18-0.18c1.044-6.012,2.052-11.951,3.023-17.746
		c-1.908,0.432-3.779,0.864-6.191,1.403c-0.071-0.539-0.18-1.079-0.216-1.583c4.319-1.296,9.395-3.384,9.611-3.384
		c0.071,0,0.107,0.036,0.071,0.18c-1.188,6.983-2.483,14.146-3.743,21.273l5.507,0.108c-0.071,0.575-0.18,1.151-0.288,1.691
		c-2.339,0-4.751,0-6.839,0c-2.123,0-4.247,0.036-6.479,0.036c0.071-0.54,0.18-1.116,0.287-1.692L444.306,347.971z"/>
</g>
<line fill="none" stroke="#A42387" stroke-width="2" stroke-linecap="round" stroke-miterlimit="10" x1="378.166" y1="236.667" x2="399.499" y2="252.667"/>
<line fill="none" stroke="#A42387" stroke-width="2" stroke-linecap="round" stroke-miterlimit="10" x1="355.499" y1="261.334" x2="399.499" y2="297.334"/>
<line fill="none" stroke="#A42387" stroke-width="2" stroke-linecap="round" stroke-miterlimit="10" x1="329.499" y1="283.334" x2="398.166" y2="338.667"/>
<g>
</g>
<g>
</g>
<g>
</g>
<g>
</g>
<g>
</g>
<g>
</g>
<g>
</g>
</svg>
