<?xml version="1.0" encoding="utf-8"?>
<!-- Generator: Adobe Illustrator 16.0.0, SVG Export Plug-In . SVG Version: 6.00 Build 0)  -->
<!DOCTYPE svg PUBLIC "-//W3C//DTD SVG 1.1//EN" "http://www.w3.org/Graphics/SVG/1.1/DTD/svg11.dtd">
<svg version="1.1" id="Layer_1" xmlns="http://www.w3.org/2000/svg" xmlns:xlink="http://www.w3.org/1999/xlink" x="0px" y="0px"
	 width="334.52px" height="57.71px" viewBox="0 0 334.52 57.71" enable-background="new 0 0 334.52 57.71" xml:space="preserve">
<g>
	<path class="logo-character" fill="#fdfad5" d="M32.638,43.862H22.633L15.19,26.354H9.456v17.509H0V0h15.312c9.395,0,15.678,3.6,15.678,12.018
		c0,6.345-3.172,10.188-7.077,12.263L32.638,43.862z M15.19,19.217c3.477,0,6.283-2.074,6.283-6.162c0-4.819-2.257-6.039-6.71-6.039
		H9.456v12.201H15.19z"/>
	<path class="logo-character" fill="#fdfad5" d="M42.274,29.222c0.244,5.429,3.172,7.809,6.955,7.809c3.05,0,5.734-0.794,8.785-2.502l0.427,7.748
		c-2.257,1.159-6.162,2.257-10.127,2.257c-12.14,0-15.373-8.053-15.373-17.386c0-11.713,6.162-16.532,13.665-16.532
		c8.724,0,12.506,5.673,12.506,15.373v3.233H42.274z M46.544,17.203c-2.867,0-4.209,2.745-4.209,6.589h8.175
		C50.51,19.217,49.045,17.203,46.544,17.203z"/>
	<path class="logo-character" fill="#fdfad5" d="M90.892,12.079l-9.578,31.783H70.089L60.023,12.079l9.7-0.854l4.209,17.143
		c0.671,2.745,1.22,5.795,1.647,8.235h0.183c0.366-2.623,1.037-5.795,1.586-8.053l4.209-17.447L90.892,12.079z"/>
	<path class="logo-character" fill="#fdfad5" d="M91.195,27.696c0-9.517,4.636-17.081,14.702-17.081c10.92,0,13.97,7.747,13.97,16.532
		c0,8.967-3.904,17.508-14.642,17.508C94.489,44.655,91.195,36.114,91.195,27.696z M110.29,27.452c0-5.246-0.672-9.639-4.576-9.639
		c-4.148,0-5.002,4.636-5.002,9.883c0,5.917,1.037,9.699,4.758,9.699C109.313,37.396,110.29,32.882,110.29,27.452z"/>
	<path class="logo-character" fill="#fdfad5" d="M123.585,0h9.272v33.309c0,2.562,0.854,3.6,2.685,3.6c1.098,0,2.135-0.244,3.843-1.037l1.099,7.015
		c-2.44,1.159-5.247,1.647-7.687,1.647c-7.26,0-9.212-4.026-9.212-9.883V0z"/>
	<path class="logo-character" fill="#fdfad5" d="M152.317,17.691V32.82c0,1.952,0.305,4.088,2.867,4.088c1.281,0,2.44-0.366,3.904-1.037l1.098,7.015
		c-2.013,0.977-5.246,1.647-7.93,1.647c-6.771,0-9.273-3.843-9.273-9.395V17.691h-4.209v-6.527h4.209v-5.49l9.334-4.332v9.822h6.894
		v6.527H152.317z"/>
	<path class="logo-character" fill="#fdfad5" d="M183.975,43.862h-9.516V0h15.738c9.518,0,15.252,4.515,15.252,13.116c0,9.333-6.162,15.434-15.984,15.434
		h-5.49V43.862z M188.367,21.474c4.881,0,7.32-2.745,7.32-7.748c0-4.697-2.5-6.71-6.648-6.71h-5.064v14.458H188.367z"/>
	<path class="logo-character" fill="#fdfad5" d="M208.863,37.396c-0.184-1.159-0.244-2.928-0.244-4.087V12.14l9.332-0.976v20.985
		c0,0.671,0,1.647,0.123,2.135c0.365,1.952,1.465,2.502,3.172,2.502c2.074,0,3.844-1.037,5.369-2.136V11.164h9.271v32.698h-8.174
		l-0.365-2.807c-2.381,1.892-5.43,3.417-9.334,3.417C212.217,44.473,209.533,41.728,208.863,37.396z"/>
	<path class="logo-character" fill="#fdfad5" d="M250.648,11.164l0.305,2.501c1.953-1.464,4.76-3.05,8.664-3.05c5.734,0,10.188,4.331,10.188,14.519
		c0,10.737-3.295,19.217-11.775,19.217c-2.256,0-4.758-0.488-6.832-1.83v14.092h-9.211V11.164H250.648z M251.258,36.176
		c0.488,0.366,1.77,1.22,4.088,1.22c3.965,0,5.064-4.331,5.064-11.042c0-6.344-1.525-8.113-4.271-8.113
		c-2.074,0-4.209,1.159-4.881,1.586V36.176z"/>
	<path class="logo-character" fill="#fdfad5" d="M282.43,11.164l0.305,2.501c1.951-1.464,4.758-3.05,8.662-3.05c5.734,0,10.188,4.331,10.188,14.519
		c0,10.737-3.293,19.217-11.773,19.217c-2.258,0-4.758-0.488-6.832-1.83v14.092h-9.213V11.164H282.43z M283.039,36.176
		c0.488,0.366,1.77,1.22,4.088,1.22c3.965,0,5.062-4.331,5.062-11.042c0-6.344-1.525-8.113-4.27-8.113
		c-2.074,0-4.209,1.159-4.881,1.586V36.176z"/>
	<path class="logo-character" fill="#fdfad5" d="M334.523,12.14c-3.049,10.981-6.771,21.718-10.248,30.075c-3.477,8.419-7.32,15.495-15.494,15.495
		c-4.088,0-7.992-1.22-10.25-2.439l2.379-7.504c2.807,1.464,4.881,2.196,6.895,2.196c3.416,0,4.697-2.379,6.648-7.504l-11.346-30.38
		l9.883-0.915l4.27,14.092c0.793,2.562,1.646,5.674,2.197,8.113h0.121c1.402-4.514,4.088-15.129,5.857-22.205L334.523,12.14z"/>
</g>
</svg>
